<?xml version="1.0" encoding="utf-8"?>
<!DOCTYPE svg PUBLIC "-//W3C//DTD SVG 1.1//EN" "http://www.w3.org/Graphics/SVG/1.1/DTD/svg11.dtd">
<svg version="1.1" id="Layer_1" xmlns="http://www.w3.org/2000/svg" xmlns:xlink="http://www.w3.org/1999/xlink" x="0px" y="0px"
	 viewBox="0 0 292.1 330.3" style="enable-background:new 0 0 292.1 330.3;" xml:space="preserve">
<g>
	<path style="fill:#FFFFFF;" d="M149.9,7.7c71.7,0,129.8,49.2,129.8,109.8v90.3c0,0,3.3,3.3,3.3,11.9v12.5
		c0,10.9-7.9,21.1-21.4,29.6v17.3c-13.1,24.2-58.2,42-111.8,42c-53.6,0-98.7-17.8-111.8-42v-17.3c-12.8-8-20.5-17.6-21.3-27.8
		c-4.8-7-7.4-14.6-7.4-22.6c0-9.7,3.8-18.8,10.7-26.9v-67.1C20,56.8,78.2,7.7,149.9,7.7 M149.9,3.7c-35.6,0-69.1,11.8-94.4,33.1
		C30.1,58.3,16,86.9,16,117.5v65.6c-7,8.7-10.7,18.5-10.7,28.3c0,8.3,2.5,16.4,7.5,24c1.3,10.3,8.6,20.1,21.2,28.6v15.1v1l0.5,0.9
		c6.9,12.8,21.7,23.9,42.8,31.9c20.9,8,46,12.2,72.5,12.2c26.5,0,51.6-4.2,72.5-12.2c21-8,35.8-19.1,42.8-31.9l0.5-0.9v-1V264
		c14-9.3,21.4-20.3,21.4-31.8v-12.5c0-7-2-11.2-3.3-13.3v-88.9c0-30.5-14-59.2-39.4-80.7C219,15.4,185.5,3.7,149.9,3.7L149.9,3.7z"
		/>
</g>
<path style="fill:#FFFFFF;" d="M279.9,113.1c0-50.7-58.2-91.8-130-91.8c-71.8,0-130,41.1-130,91.8c0,0.3,0,0.7,0,1h0V195
	c0,9.6,58.2,17.3,130,17.3c71.8,0,130-7.8,130-17.3v-80.8h0C279.9,113.8,279.9,113.5,279.9,113.1z"/>
<path style="fill:#000;" d="M56.2,208c23.7,3.3,56.9,5.3,93.7,5.3c39,0,73.9-2.3,97.7-5.9V131h0c0-0.3,0-0.6,0-0.8
	c0-23.4-14.3-44.2-36.6-57.7c4.5-7.7,7.1-16.4,7.4-25.6c-19-9.8-41.9-15.5-66.6-15.5c-27.1,0-52,6.9-72.1,18.5
	c0.8,9.1,3.9,17.7,8.8,25.2c-19.9,13.4-32.5,33.1-32.5,55.1c0,0.3,0,0.6,0,0.8h0V208z"/>
<g>
	<path style="fill:#FFFFFF;" d="M167.2,257.5c1.2-1.1,2.2-2.4,3-3.8v-17.3c-0.8-1.4-1.8-2.7-3-3.8V257.5z"/>
	<path style="fill:#FFFFFF;" d="M162,261.2c1.1-0.5,2.1-1.1,3-1.8v-28.6c-0.9-0.7-1.9-1.3-3-1.8V261.2z"/>
	<path style="fill:#FFFFFF;" d="M156,263c1-0.2,2-0.4,3-0.7v-34.6c-1-0.3-2-0.5-3-0.7V263z"/>
	<path style="fill:#FFFFFF;" d="M146.2,262.3c1,0.3,2,0.5,3,0.7v-36c-1,0.2-2,0.4-3,0.7V262.3z"/>
	<path style="fill:#FFFFFF;" d="M141,259.9c0.9,0.6,1.9,1.2,3,1.6v-33c-1.1,0.5-2.1,1-3,1.6V259.9z"/>
	<path style="fill:#FFFFFF;" d="M135,253.7c0.8,1.4,1.8,2.7,3,3.8v-24.9c-1.2,1.1-2.2,2.4-3,3.8V253.7z"/>
</g>
<g>
	<path style="fill:none;stroke:#FFFFFF;stroke-miterlimit:10;" d="M37.6,262.2c23.7,15,65.4,24.9,112.2,24.9
		c46.8,0,88.5-9.9,112.3-24.9"/>
</g>
<path style="fill:none;stroke:#FFFFFF;stroke-miterlimit:10;" d="M20,198.7c0,0,5.9,18.9,132.3,18.9c111,0,127.8-18.9,127.8-18.9"/>
<circle style="fill:#FFFFFF;" cx="200.6" cy="241.3" r="6"/>
<circle style="fill:#FFFFFF;" cx="219.5" cy="237.3" r="5.4"/>
<circle style="fill:#FFFFFF;" cx="244.1" cy="228.9" r="4"/>
<path style="fill:#FFFFFF;" d="M88.8,229.4c-5,0-9.6,1.3-13.7,3.6c0,0,0.1,0,0.1,0c-2.1,1.6-9.3,7.6-2.6,9c4.4,1,11.7,1.4,17.2,1.5
	c-2.5,4.3-3.9,9.2-3.9,14.5c0,2.4,0.3,4.7,0.8,6.9c10.8,2.2,20.8,3.5,28.2,4.2c1.4-3.4,2.2-7.2,2.2-11.1
	C117.1,242.2,104.5,229.4,88.8,229.4z"/>
<path style="fill:none;stroke:#FFFFFF;stroke-width:2;stroke-miterlimit:10;" d="M89.8,243.5c-5.5-0.2-12.8-0.6-17.2-1.5
	c-6.6-1.4,0.5-7.4,2.6-9C50,226.8,29.9,214.4,20,199l-0.9-14.5c-6.8,8.1-9.7,17.2-9.7,26.9c0,28.7,33.9,52.6,79.1,58.6
	c-1.6-3.6-2.6-7.7-2.6-11.9C85.9,252.8,87.3,247.8,89.8,243.5z"/>
<path style="fill:none;stroke:#FFFFFF;stroke-miterlimit:10;" d="M34.1,214.1c0,0-15.3,4.4-14.3,24"/>
<path style="fill:none;stroke:#FFFFFF;stroke-miterlimit:10;" d="M40.9,218.8c0,0-14.3,5.5-13.6,26.7"/>
<path style="fill:none;stroke:#FFFFFF;stroke-miterlimit:10;" d="M48.9,223.4c0,0-16.2,9.5-11.3,29.6"/>
<path style="fill:none;stroke:#FFFFFF;stroke-miterlimit:10;" d="M57.5,227.3c0,0-16,10.9-7.9,32.1"/>
<path style="fill:none;stroke:#FFFFFF;stroke-miterlimit:10;" d="M66.8,230.6c0,0-16,12.7-6.8,32.8"/>
<path style="fill:none;stroke:#FFFFFF;stroke-miterlimit:10;" d="M29.1,209.7c0,0-14.8,1.7-15.5,18.8"/>
<path style="fill:none;stroke:#FFFFFF;stroke-miterlimit:10;" d="M72.6,242c0,0-6.9,9.6-1.5,24.7"/>
<path style="fill:none;stroke:#FFFFFF;stroke-miterlimit:10;" d="M84.5,243.3c0,0-7.9,12.1-1.4,25.7"/>
<path style="fill:none;stroke:#FFFFFF;stroke-miterlimit:10;" d="M24.1,204.5c0,0-12.3-1-14.2,13.1"/>
<path style="fill:none;stroke:#FFFFFF;stroke-miterlimit:10;" d="M20,200c0,0-8-1.5-10.1,6.2"/>
<path style="fill:none;stroke:#FFFFFF;stroke-miterlimit:10;" d="M20,194.8c0,0-4.2-1.6-8,2.7"/>
<path style="fill:none;stroke:#EC1A35;stroke-miterlimit:10;" d="M271.6,201.1v-76.9h0c0-0.3,0-0.7,0-1c0-50.7-53.6-91.8-119.8-91.8
	c-66.1,0-119.8,41.1-119.8,91.8c0,0.3,0,0.7,0,1h0v78.2"/>
<path style="fill:none;stroke:#FFFFFF;stroke-miterlimit:10;" d="M86.8,265.1c16.5,3.5,37.2,5.6,63.1,5.6
	c140.5,0,130.3-62.9,130.3-62.9"/>
<path style="fill:none;stroke:#FFFFFF;stroke-miterlimit:10;" d="M88.8,270.1c16.5,3.5,37.2,5.6,63.1,5.6
	c140.5,0,130.3-62.9,130.3-62.9"/>
<path style="fill:#FFFFFF;" d="M176.6,106.3c0,0,16.3-7,26.7-12.7c0,0,16.3,23.7,19.7,45.7c0,0-16,7-38.7,8
	C184.3,147.3,183.6,129.3,176.6,106.3z"/>
<path style="fill:none;stroke:#FFFFFF;stroke-miterlimit:10;" d="M19.9,195c0,9.6,58.2,17.3,130,17.3c71.8,0,130-7.8,130-17.3"/>
</svg>
