<svg xmlns="http://www.w3.org/2000/svg" xmlns:xlink="http://www.w3.org/1999/xlink" xmlns:sketch="http://www.bohemiancoding.com/sketch/ns" width="100px" height="87.9310344828px" viewBox="0 0 116 102" version="1.1">
    <title>monitor_screen_tablet_phone_2</title>
    <description>Created with Sketch (http://www.bohemiancoding.com/sketch)</description>
    <defs/>
    <g id="Device" stroke="none" stroke-width="1" fill="none" fill-rule="evenodd" sketch:type="MSPage">
        <path d="M98.6824645,101.695498 L58.4286945,101.695498 C53,101.695498 53,96.2668031 53,96.2668031 L53,62.3374623 C53,62.3374623 53,56.9087678 58.4286945,56.9087678 L95,56.9087678 L95,53 L90,53 L90,9.56 C90,5 85.5263158,5 85.5263158,5 L9.47368421,5 C9.47368421,5 5,5 5,9.56 L5,57.44 C5,62 9.47368421,62 9.47368421,62 L50,62 L50,77 L50,77 L9.04761905,77 C9.04761905,77 0,77 0,67.9411765 L0,9.05882353 C0,0 9.04761905,0 9.04761905,0 L85.952381,0 C85.952381,0 95,0 95,9.05882353 L95,56.9087678 L95,56.9087678 L107.286945,56.9087678 C112.71564,56.9087678 112.71564,62.3374623 112.71564,62.3374623 L112.71564,66.7618483 L106.146919,66.7618483 L106.146919,62.7697472 C106.146919,62.7697472 106.146919,59.8945498 103.42654,59.8945498 L59.9004739,59.8945498 C57.1800948,59.8945498 57.1800948,62.7697472 57.1800948,62.7697472 L57.1800948,95.8345182 C57.1800948,95.8345182 57.1800948,98.7097156 59.9004739,98.7097156 L98.6824645,98.7097156 L98.6824645,101.695498 L98.6824645,101.695498 Z M50,94.9987793 L37.9655762,94.9987793 L40.9627686,91 L40.9627686,82 L36,82 L36,91 L27,100 L50,100 L50,94.9987793 L50,94.9987793 Z M102.947867,67.9561611 C102.947867,67.9561611 99.8767773,67.9561611 99.8767773,71.050517 L99.8767773,98.8997199 C99.8767773,101.994076 102.947867,101.994076 102.947867,101.994076 L112.92891,101.994076 C112.92891,101.994076 116,101.994076 116,98.8997199 L116,71.050517 C116,67.9561611 112.92891,67.9561611 112.92891,67.9561611 L102.947867,67.9561611 Z M101.668246,71.5390995 L101.668246,96.0225118 L114.208531,96.0225118 L114.208531,71.5390995 L101.668246,71.5390995 Z M108.236967,100.799763 C108.896568,100.799763 109.43128,100.265051 109.43128,99.6054502 C109.43128,98.9458495 108.896568,98.4111374 108.236967,98.4111374 C107.577366,98.4111374 107.042654,98.9458495 107.042654,99.6054502 C107.042654,100.265051 107.577366,100.799763 108.236967,100.799763 Z M105.260224,69.1504739 C104.925431,69.1504739 104.654028,69.4274752 104.654028,69.7476303 C104.654028,70.0774307 104.919666,70.3447867 105.260224,70.3447867 L110.616553,70.3447867 C110.951346,70.3447867 111.222749,70.0677855 111.222749,69.7476303 C111.222749,69.41783 110.957112,69.1504739 110.616553,69.1504739 L105.260224,69.1504739 Z" id="monitor_screen_tablet_phone_2" fill="#FFF" sketch:type="MSShapeGroup"/>
    </g>
</svg>