<?xml version="1.0" encoding="UTF-8" standalone="no"?>
<svg width="224px" height="55px" viewBox="0 0 224 55" version="1.1" xmlns="http://www.w3.org/2000/svg" xmlns:xlink="http://www.w3.org/1999/xlink" xmlns:sketch="http://www.bohemiancoding.com/sketch/ns">
    <!-- Generator: Sketch 3.4.2 (15855) - http://www.bohemiancoding.com/sketch -->
    <title>Vattenfall Normal</title>
    <desc>Created with Sketch.</desc>
    <defs></defs>
    <g id="Page-1" stroke="none" stroke-width="1" fill="none" fill-rule="evenodd" sketch:type="MSPage">
        <g id="Menu-180px" sketch:type="MSArtboardGroup" transform="translate(-608.000000, -40.000000)">
            <g sketch:type="MSLayerGroup" id="Vattenfall-Normal">
                <g transform="translate(608.000000, 40.000000)" sketch:type="MSShapeGroup">
                    <path d="M196.430143,0.891628571 C181.636714,0.891628571 169.599571,12.9319143 169.599571,27.7300571 C169.599571,42.5250571 181.636714,54.5653429 196.430143,54.5653429 C211.226714,54.5653429 223.268571,42.5250571 223.268571,27.7300571 C223.268571,12.9319143 211.226714,0.891628571 196.430143,0.891628571" id="Fill-1" fill="#000"></path>
                    <path d="M214.480043,12.243 C212.946329,10.4547143 211.164329,8.8 209.079043,7.65914286 C209.621186,9.41128571 210.570329,12.243 210.570329,12.243 L214.480043,12.243 Z M201.500043,29.6968571 C194.081329,28.5418571 187.783043,24.0962857 180.037471,25.2088571 C177.245043,25.6142857 174.432186,27.0207143 172.689471,29.1751429 C171.979186,21.4845714 175.6909,12.9187143 182.990186,7.97971429 C189.593329,3.51371429 199.881471,2.68085714 207.3049,6.589 C206.624471,8.35842857 205.458471,12.2461429 205.458471,12.2461429 L197.4159,12.2508571 L203.896471,17.0217143 L201.460757,24.673 L207.9869,20.0891429 L214.428186,24.7107143 L212.091471,17.0342857 C212.091471,17.0342857 214.703186,15.2554286 215.943043,14.2811429 C218.078614,17.215 219.433186,20.6957143 219.863757,24.2785714 C215.0049,28.8545714 208.227329,30.7402857 201.500043,29.6968571 L201.500043,29.6968571 Z" id="Fill-3" fill="#FFF"></path>
                    <path d="M188.556029,50.0693286 C198.694886,53.7590429 210.493171,49.7990429 215.876886,41.1561857 C211.608886,44.6667571 205.896743,45.1916143 203.167171,45.3896143 C200.4376,45.5907571 191.0766,44.8097571 188.556029,50.0693286 M220.124457,28.5894714 C220.115029,29.6721857 219.997171,32.5117571 218.718029,34.4713286 C218.135029,35.3717571 217.0916,36.2957571 216.2886,36.8536143 C212.939886,39.2186143 208.620029,40.7947571 203.159314,40.8073286 C195.638457,40.8151857 185.271743,38.3291857 180.665886,45.4477571 C178.374743,43.5369 176.443457,40.8607571 175.125029,38.2836143 C177.862457,33.8364714 182.117886,32.5981857 186.538314,32.5793286 C192.684171,32.5620429 197.957886,35.0731857 203.522314,35.0731857 C210.0186,35.0747571 215.876886,33.2016143 220.124457,28.5894714" id="Fill-5" fill="#FFF"></path>
                    <path d="M155.1341,19.6651714 L149.318243,19.6651714 C149.321386,19.6651714 149.728386,20.0203143 149.872957,20.3377429 C149.979814,20.5876 150.045814,20.8013143 150.045814,21.0008857 L150.045814,34.3957429 C150.036386,34.6518857 149.976671,34.8954571 149.872957,35.1280286 C149.725243,35.4376 149.624671,35.5601714 149.321386,35.8084571 L162.3721,35.8084571 L162.3721,31.7243143 C161.212386,32.7221714 161.180957,32.6373143 158.976243,32.6373143 L154.411243,32.6373143 L154.411243,21.0276 C154.411243,20.7903143 154.456814,20.5876 154.604529,20.3377429 C154.764814,20.0281714 155.1341,19.6651714 155.1341,19.6651714 L155.1341,19.6651714 Z M120.141529,29.0733143 L124.253957,29.0733143 L122.187529,24.1531714 L120.141529,29.0733143 Z M131.289243,34.2763143 L131.578386,34.8341714 C131.732386,35.1154571 132.029386,35.4376 132.439529,35.8116 L125.9731,35.8116 C126.329814,35.5790286 126.519957,35.2537429 126.519957,34.8247429 C126.519957,34.4554571 126.389529,34.2197429 125.899243,32.9657429 L125.591243,32.2460286 L118.821529,32.2507429 L118.5261,32.9594571 C118.123814,33.8033143 117.922671,34.4318857 117.922671,34.8247429 C117.922671,35.2537429 118.100243,35.5790286 118.467957,35.8116 L113.1031,35.8116 C113.491243,35.4501714 113.706529,35.2097429 113.934386,34.7980286 L114.2361,34.1678857 L120.293957,19.6604571 L125.1371,19.6604571 L131.289243,34.2763143 Z M62.6335286,19.6604571 L49.5749571,19.6604571 L49.5749571,23.6801714 C50.4455286,22.8033143 51.5282429,22.8096 53.2756714,22.8143143 L53.9215286,22.8143143 L53.9215286,33.7420286 C53.9215286,34.9598857 53.7911,35.3417429 53.1923857,35.8084571 L59.0051,35.8084571 C58.4158143,35.3417429 58.2806714,34.9598857 58.2806714,33.7420286 L58.2806714,22.8143143 L58.9768143,22.8143143 C60.8971,22.8096 61.6561,22.8206 62.6335286,23.6801714 L62.6335286,19.6604571 Z M105.879243,29.7851714 L110.390814,29.7851714 C111.3761,29.7851714 113.057529,29.0701714 113.057529,26.3091714 C113.057529,26.3704571 112.444671,26.5637429 110.907814,26.5716 L105.879243,26.5716 L105.879243,22.8363143 L111.619671,22.8363143 C111.619671,22.8363143 113.811814,22.7090286 114.350814,23.6031714 L114.350814,19.6918857 L100.781529,19.6777429 C101.309529,20.1177429 101.480814,20.2953143 101.480814,21.0511714 L101.477671,34.4318857 C101.480814,34.9598857 101.164957,35.4737429 100.7611,35.8084571 L106.573814,35.8084571 C106.083529,35.4454571 105.882386,35.0164571 105.879243,34.4318857 L105.879243,29.7851714 Z M64.5491,19.6651714 C65.1242429,20.0753143 65.2751,20.4713143 65.2751,21.0291714 L65.2751,34.4476 C65.2751,35.3338857 65.0016714,35.4768857 64.5883857,35.8053143 L78.6778143,35.8053143 L78.6888143,31.7321714 C77.8716714,32.7740286 77.2462429,32.6278857 75.5773857,32.6184571 L69.6672429,32.6184571 L69.6798143,29.2037429 L74.2086714,29.2037429 C75.1986714,29.2037429 76.8675286,28.4793143 76.8675286,25.7403143 C76.8675286,25.7890286 76.2625286,25.9886 74.7225286,25.9996 L69.6798143,25.9996 L69.6672429,22.8143143 L75.4312429,22.8143143 C75.4312429,22.8143143 77.7836714,22.6760286 78.3289571,23.5890286 L78.3289571,19.6824571 L64.5491,19.6651714 Z M10.7873857,31.3236 L7.09295714,22.5141714 C6.58538571,21.2491714 6.47067143,21.0087429 6.47067143,20.6488857 C6.47067143,20.2104571 6.65138571,19.8883143 7.01124286,19.6416 L0.546385714,19.6416 C0.951814286,20.0391714 1.24724286,20.3628857 1.40438571,20.6316 L1.70138571,21.1910286 L7.85038571,35.8084571 L12.6841,35.8084571 L18.7466714,21.2994571 L19.0483857,20.6771714 C19.2888143,20.2607429 19.4915286,20.0250286 19.8812429,19.6620286 L14.5211,19.6620286 C14.8856714,19.8883143 15.0632429,20.2104571 15.0632429,20.6488857 C15.0632429,21.0386 14.8605286,21.6703143 14.4582429,22.5141714 L10.7873857,31.3236 Z M47.8715286,19.6604571 L34.8161,19.6604571 L34.8161,23.6801714 C35.6898143,22.8033143 36.7678143,22.8096 38.5199571,22.8143143 L39.1673857,22.8143143 L39.1673857,33.7420286 C39.1673857,34.9598857 39.0353857,35.3417429 38.4272429,35.8084571 L44.2541,35.8084571 C43.6538143,35.3417429 43.5186714,34.9598857 43.5186714,33.7420286 L43.5186714,22.8143143 L44.2211,22.8143143 C46.1382429,22.8096 46.8941,22.8206 47.8715286,23.6801714 L47.8715286,19.6604571 Z M92.7499571,19.6651714 C93.3706714,20.1460286 93.4838143,20.4870286 93.4838143,21.7268857 L93.4838143,29.7270286 L87.7009571,19.6651714 L81.8332429,19.6651714 C82.1412429,19.9008857 82.2386714,20.0328857 82.3753857,20.3440286 C82.5199571,20.6756 82.5309571,20.7227429 82.5671,21.0291714 L82.5765286,34.4318857 C82.5372429,34.6566 82.4869571,34.8954571 82.3753857,35.1343143 C82.2386714,35.4376 82.1365286,35.5711714 81.8332429,35.8084571 L86.4579571,35.8084571 C86.1578143,35.5711714 86.0493857,35.4376 85.9126714,35.1343143 C85.8121,34.8954571 85.7413857,34.6518857 85.7241,34.4318857 L85.7351,25.1478857 L91.7599571,35.8084571 L96.6581,35.8084571 L96.6581,21.7268857 C96.6581,20.5027429 96.7806714,20.1271714 97.3825286,19.6651714 L92.7499571,19.6651714 Z M140.051529,19.6651714 L134.2341,19.6651714 C134.2341,19.6651714 134.6521,20.0203143 134.774671,20.3377429 C134.886243,20.5876 134.955386,20.8013143 134.955386,21.0008857 L134.955386,34.3957429 C134.947529,34.6518857 134.886243,34.8954571 134.771529,35.1280286 C134.639529,35.4376 134.5421,35.5601714 134.238814,35.8084571 L147.284814,35.8084571 L147.284814,31.7243143 C146.126671,32.7221714 146.093671,32.6373143 143.9031,32.6373143 L139.323957,32.6373143 L139.323957,21.0276 C139.323957,20.7903143 139.378957,20.5876 139.5141,20.3377429 C139.675957,20.0281714 140.051529,19.6651714 140.051529,19.6651714 L140.051529,19.6651714 Z M23.7595286,29.0733143 L27.8766714,29.0733143 L25.8118143,24.1516 L23.7595286,29.0733143 Z M34.9025286,34.2763143 L35.1963857,34.8341714 C35.3472429,35.1154571 35.6505286,35.4376 36.0528143,35.8116 L29.5832429,35.8116 C29.9541,35.5790286 30.1348143,35.2537429 30.1348143,34.8247429 C30.1348143,34.4554571 30.0106714,34.2197429 29.5109571,32.9657429 L29.2092429,32.2460286 L22.4379571,32.2507429 L22.1425286,32.9594571 C21.7402429,33.8033143 21.5375286,34.4318857 21.5375286,34.8247429 C21.5375286,35.2537429 21.7135286,35.5790286 22.0843857,35.8116 L16.7211,35.8116 C17.1076714,35.4501714 17.3182429,35.2097429 17.5476714,34.7980286 L17.8588143,34.1678857 L23.9198143,19.6604571 L28.7488143,19.6604571 L34.9025286,34.2763143 Z" id="Fill-7" fill="#FFFFFF"></path>
                </g>
            </g>
        </g>
    </g>
</svg>